<svg width="56" height="56" xmlns="http://www.w3.org/2000/svg" xmlns:xlink="http://www.w3.org/1999/xlink" overflow="hidden"><defs><clipPath id="clip0"><rect x="783" y="518" width="56" height="56"/></clipPath><clipPath id="clip1"><rect x="784" y="518" width="55" height="55"/></clipPath><clipPath id="clip2"><rect x="784" y="518" width="55" height="55"/></clipPath><clipPath id="clip3"><rect x="784" y="518" width="55" height="55"/></clipPath></defs><g clip-path="url(#clip0)" transform="translate(-783 -518)"><g clip-path="url(#clip1)"><g clip-path="url(#clip2)"><g clip-path="url(#clip3)"><path d="M828.418 533.567C826.56 524.246 817.499 518.196 808.178 520.054 801.361 521.413 796.031 526.74 794.668 533.556 788.059 534.318 783.319 540.292 784.08 546.901 784.781 552.983 789.933 557.572 796.055 557.568L804.659 557.568C805.609 557.568 806.38 556.798 806.38 555.847 806.38 554.897 805.609 554.127 804.659 554.127L796.055 554.127C791.303 554.098 787.474 550.224 787.502 545.472 787.53 540.72 791.405 536.89 796.157 536.918 797.034 536.918 797.771 536.259 797.867 535.387 798.741 527.835 805.572 522.42 813.124 523.294 819.474 524.028 824.483 529.037 825.217 535.387 825.362 536.274 826.13 536.924 827.029 536.918 831.781 536.918 835.633 540.771 835.633 545.523 835.633 550.274 831.781 554.127 827.029 554.127L818.425 554.127C817.475 554.127 816.704 554.897 816.704 555.847 816.704 556.798 817.475 557.568 818.425 557.568L827.03 557.568C833.682 557.527 839.041 552.1 839 545.448 838.962 539.39 834.431 534.303 828.418 533.567Z" fill="#063982"/><path d="M817.625 561.096 813.263 565.46 813.263 543.802C813.263 542.851 812.492 542.081 811.542 542.081 810.592 542.081 809.822 542.851 809.822 543.802L809.822 565.46 805.459 561.096C804.799 560.412 803.709 560.393 803.026 561.054 802.342 561.714 802.323 562.803 802.983 563.487 802.998 563.501 803.012 563.515 803.026 563.529L810.324 570.828C810.483 570.988 810.672 571.114 810.88 571.2 811.303 571.379 811.781 571.379 812.205 571.2 812.413 571.114 812.602 570.988 812.76 570.828L820.059 563.529C820.742 562.869 820.761 561.779 820.101 561.096 819.44 560.412 818.351 560.393 817.668 561.054 817.653 561.067 817.639 561.081 817.625 561.096Z" fill="#063982"/></g></g></g></g></svg>